<?xml version="1.0" encoding="us-ascii" standalone="no"?><svg xmlns="http://www.w3.org/2000/svg" xmlns:xlink="http://www.w3.org/1999/xlink" contentStyleType="text/css" height="1270px" preserveAspectRatio="none" style="width:662px;height:1270px;background:#FFFFFF;" version="1.1" viewBox="0 0 662 1270" width="662px" zoomAndPan="magnify"><defs/><g><line style="stroke:#181818;stroke-width:0.5;stroke-dasharray:5.0,5.0;" x1="23" x2="23" y1="81.4883" y2="1189.2207"/><line style="stroke:#181818;stroke-width:0.5;stroke-dasharray:5.0,5.0;" x1="235" x2="235" y1="81.4883" y2="1189.2207"/><line style="stroke:#181818;stroke-width:0.5;stroke-dasharray:5.0,5.0;" x1="451" x2="451" y1="81.4883" y2="1189.2207"/><line style="stroke:#181818;stroke-width:0.5;stroke-dasharray:5.0,5.0;" x1="594.5" x2="594.5" y1="81.4883" y2="1189.2207"/><text fill="#000000" font-family="sans-serif" font-size="14" lengthAdjust="spacing" textLength="31" x="5" y="78.5352">User</text><ellipse cx="23.5" cy="13.5" fill="#E2E2F0" rx="8" ry="8" style="stroke:#181818;stroke-width:0.5;"/><path d="M23.5,21.5 L23.5,48.5 M10.5,29.5 L36.5,29.5 M23.5,48.5 L10.5,63.5 M23.5,48.5 L36.5,63.5 " fill="none" style="stroke:#181818;stroke-width:0.5;"/><text fill="#000000" font-family="sans-serif" font-size="14" lengthAdjust="spacing" textLength="31" x="5" y="1201.7559">User</text><ellipse cx="23.5" cy="1213.209" fill="#E2E2F0" rx="8" ry="8" style="stroke:#181818;stroke-width:0.5;"/><path d="M23.5,1221.209 L23.5,1248.209 M10.5,1229.209 L36.5,1229.209 M23.5,1248.209 L10.5,1263.209 M23.5,1248.209 L36.5,1263.209 " fill="none" style="stroke:#181818;stroke-width:0.5;"/><rect fill="#E2E2F0" height="30.4883" rx="2.5" ry="2.5" style="stroke:#181818;stroke-width:0.5;" width="111" x="180" y="50"/><text fill="#000000" font-family="sans-serif" font-size="14" lengthAdjust="spacing" textLength="97" x="187" y="70.5352">EMC Frontend</text><rect fill="#E2E2F0" height="30.4883" rx="2.5" ry="2.5" style="stroke:#181818;stroke-width:0.5;" width="111" x="180" y="1188.2207"/><text fill="#000000" font-family="sans-serif" font-size="14" lengthAdjust="spacing" textLength="97" x="187" y="1208.7559">EMC Frontend</text><rect fill="#E2E2F0" height="30.4883" rx="2.5" ry="2.5" style="stroke:#181818;stroke-width:0.5;" width="105" x="399" y="50"/><text fill="#000000" font-family="sans-serif" font-size="14" lengthAdjust="spacing" textLength="91" x="406" y="70.5352">EMC Backend</text><rect fill="#E2E2F0" height="30.4883" rx="2.5" ry="2.5" style="stroke:#181818;stroke-width:0.5;" width="105" x="399" y="1188.2207"/><text fill="#000000" font-family="sans-serif" font-size="14" lengthAdjust="spacing" textLength="91" x="406" y="1208.7559">EMC Backend</text><rect fill="#E2E2F0" height="30.4883" rx="2.5" ry="2.5" style="stroke:#181818;stroke-width:0.5;" width="112" x="538.5" y="50"/><text fill="#000000" font-family="sans-serif" font-size="14" lengthAdjust="spacing" textLength="98" x="545.5" y="70.5352">Target Cluster</text><rect fill="#E2E2F0" height="30.4883" rx="2.5" ry="2.5" style="stroke:#181818;stroke-width:0.5;" width="112" x="538.5" y="1188.2207"/><text fill="#000000" font-family="sans-serif" font-size="14" lengthAdjust="spacing" textLength="98" x="545.5" y="1208.7559">Target Cluster</text><rect fill="#EEEEEE" height="3" style="stroke:#EEEEEE;stroke-width:1.0;" width="655.5" x="0" y="112.1436"/><line style="stroke:#000000;stroke-width:1.0;" x1="0" x2="655.5" y1="112.1436" y2="112.1436"/><line style="stroke:#000000;stroke-width:1.0;" x1="0" x2="655.5" y1="115.1436" y2="115.1436"/><rect fill="#EEEEEE" height="23.3105" style="stroke:#000000;stroke-width:2.0;" width="192" x="231.75" y="101.4883"/><text fill="#000000" font-family="sans-serif" font-size="13" font-weight="bold" lengthAdjust="spacing" textLength="174" x="237.75" y="118.0566">Open Deployment Wizard</text><polygon fill="#181818" points="223.5,152.1094,233.5,156.1094,223.5,160.1094,227.5,156.1094" style="stroke:#181818;stroke-width:1.0;"/><line style="stroke:#181818;stroke-width:1.0;" x1="23.5" x2="229.5" y1="156.1094" y2="156.1094"/><text fill="#000000" font-family="sans-serif" font-size="13" lengthAdjust="spacing" textLength="158" x="30.5" y="151.3672">Click Deployment Wizard</text><rect fill="#EEEEEE" height="3" style="stroke:#EEEEEE;stroke-width:1.0;" width="655.5" x="0" y="184.7646"/><line style="stroke:#000000;stroke-width:1.0;" x1="0" x2="655.5" y1="184.7646" y2="184.7646"/><line style="stroke:#000000;stroke-width:1.0;" x1="0" x2="655.5" y1="187.7646" y2="187.7646"/><rect fill="#EEEEEE" height="23.3105" style="stroke:#000000;stroke-width:2.0;" width="229" x="213.25" y="174.1094"/><text fill="#000000" font-family="sans-serif" font-size="13" font-weight="bold" lengthAdjust="spacing" textLength="211" x="219.25" y="190.6777">Submodel Server Configuration</text><polygon fill="#181818" points="223.5,240.041,233.5,244.041,223.5,248.041,227.5,244.041" style="stroke:#181818;stroke-width:1.0;"/><line style="stroke:#181818;stroke-width:1.0;" x1="23.5" x2="229.5" y1="244.041" y2="244.041"/><text fill="#000000" font-family="sans-serif" font-size="13" lengthAdjust="spacing" textLength="145" x="30.5" y="223.9883">Select Submodel Server</text><text fill="#000000" font-family="sans-serif" font-size="13" lengthAdjust="spacing" textLength="101" x="30.5" y="239.2988">(Existing / New)</text><polygon fill="#181818" points="223.5,269.3516,233.5,273.3516,223.5,277.3516,227.5,273.3516" style="stroke:#181818;stroke-width:1.0;"/><line style="stroke:#181818;stroke-width:1.0;" x1="23.5" x2="229.5" y1="273.3516" y2="273.3516"/><text fill="#000000" font-family="sans-serif" font-size="13" lengthAdjust="spacing" textLength="188" x="30.5" y="268.6094">Provide Submodel Server Host</text><polygon fill="#181818" points="223.5,298.6621,233.5,302.6621,223.5,306.6621,227.5,302.6621" style="stroke:#181818;stroke-width:1.0;"/><line style="stroke:#181818;stroke-width:1.0;" x1="23.5" x2="229.5" y1="302.6621" y2="302.6621"/><text fill="#000000" font-family="sans-serif" font-size="13" lengthAdjust="spacing" textLength="168" x="30.5" y="297.9199">Select Authentication Type</text><path d="M240,315.6621 L240,432.6621 L402,432.6621 L402,325.6621 L392,315.6621 L240,315.6621 " fill="#FEFFDD" style="stroke:#181818;stroke-width:0.5;"/><path d="M392,315.6621 L392,325.6621 L402,325.6621 L392,315.6621 " fill="#FEFFDD" style="stroke:#181818;stroke-width:0.5;"/><text fill="#000000" font-family="sans-serif" font-size="13" lengthAdjust="spacing" textLength="60" x="246" y="333.2305">AuthType</text><text fill="#000000" font-family="sans-serif" font-size="13" lengthAdjust="spacing" textLength="77" x="246" y="348.541">BearerToken</text><text fill="#000000" font-family="sans-serif" font-size="13" lengthAdjust="spacing" textLength="141" x="246" y="363.8516">OAuthAccessTokenUrl</text><text fill="#000000" font-family="sans-serif" font-size="13" lengthAdjust="spacing" textLength="89" x="246" y="379.1621">OAuthClientId</text><text fill="#000000" font-family="sans-serif" font-size="13" lengthAdjust="spacing" textLength="115" x="246" y="394.4727">OAuthClientSecret</text><text fill="#000000" font-family="sans-serif" font-size="13" lengthAdjust="spacing" textLength="77" x="246" y="409.7832">OAuthScope</text><text fill="#000000" font-family="sans-serif" font-size="13" lengthAdjust="spacing" textLength="107" x="246" y="425.0938">OAuthClientAuth</text><rect fill="#EEEEEE" height="3" style="stroke:#EEEEEE;stroke-width:1.0;" width="655.5" x="0" y="458.4912"/><line style="stroke:#000000;stroke-width:1.0;" x1="0" x2="655.5" y1="458.4912" y2="458.4912"/><line style="stroke:#000000;stroke-width:1.0;" x1="0" x2="655.5" y1="461.4912" y2="461.4912"/><rect fill="#EEEEEE" height="23.3105" style="stroke:#000000;stroke-width:2.0;" width="256" x="199.75" y="447.8359"/><text fill="#000000" font-family="sans-serif" font-size="13" font-weight="bold" lengthAdjust="spacing" textLength="238" x="205.75" y="464.4043">Digital Twin Registry Configuration</text><polygon fill="#181818" points="223.5,513.7676,233.5,517.7676,223.5,521.7676,227.5,517.7676" style="stroke:#181818;stroke-width:1.0;"/><line style="stroke:#181818;stroke-width:1.0;" x1="23.5" x2="229.5" y1="517.7676" y2="517.7676"/><text fill="#000000" font-family="sans-serif" font-size="13" lengthAdjust="spacing" textLength="67" x="30.5" y="497.7148">Select DTR</text><text fill="#000000" font-family="sans-serif" font-size="13" lengthAdjust="spacing" textLength="101" x="30.5" y="513.0254">(Existing / New)</text><polygon fill="#181818" points="223.5,543.0781,233.5,547.0781,223.5,551.0781,227.5,547.0781" style="stroke:#181818;stroke-width:1.0;"/><line style="stroke:#181818;stroke-width:1.0;" x1="23.5" x2="229.5" y1="547.0781" y2="547.0781"/><text fill="#000000" font-family="sans-serif" font-size="13" lengthAdjust="spacing" textLength="110" x="30.5" y="542.3359">Provide DTR Host</text><polygon fill="#181818" points="223.5,572.3887,233.5,576.3887,223.5,580.3887,227.5,576.3887" style="stroke:#181818;stroke-width:1.0;"/><line style="stroke:#181818;stroke-width:1.0;" x1="23.5" x2="229.5" y1="576.3887" y2="576.3887"/><text fill="#000000" font-family="sans-serif" font-size="13" lengthAdjust="spacing" textLength="168" x="30.5" y="571.6465">Select Authentication Type</text><path d="M240,589.3887 L240,706.3887 L402,706.3887 L402,599.3887 L392,589.3887 L240,589.3887 " fill="#FEFFDD" style="stroke:#181818;stroke-width:0.5;"/><path d="M392,589.3887 L392,599.3887 L402,599.3887 L392,589.3887 " fill="#FEFFDD" style="stroke:#181818;stroke-width:0.5;"/><text fill="#000000" font-family="sans-serif" font-size="13" lengthAdjust="spacing" textLength="60" x="246" y="606.957">AuthType</text><text fill="#000000" font-family="sans-serif" font-size="13" lengthAdjust="spacing" textLength="77" x="246" y="622.2676">BearerToken</text><text fill="#000000" font-family="sans-serif" font-size="13" lengthAdjust="spacing" textLength="141" x="246" y="637.5781">OAuthAccessTokenUrl</text><text fill="#000000" font-family="sans-serif" font-size="13" lengthAdjust="spacing" textLength="89" x="246" y="652.8887">OAuthClientId</text><text fill="#000000" font-family="sans-serif" font-size="13" lengthAdjust="spacing" textLength="115" x="246" y="668.1992">OAuthClientSecret</text><text fill="#000000" font-family="sans-serif" font-size="13" lengthAdjust="spacing" textLength="77" x="246" y="683.5098">OAuthScope</text><text fill="#000000" font-family="sans-serif" font-size="13" lengthAdjust="spacing" textLength="107" x="246" y="698.8203">OAuthClientAuth</text><rect fill="#EEEEEE" height="3" style="stroke:#EEEEEE;stroke-width:1.0;" width="655.5" x="0" y="732.2178"/><line style="stroke:#000000;stroke-width:1.0;" x1="0" x2="655.5" y1="732.2178" y2="732.2178"/><line style="stroke:#000000;stroke-width:1.0;" x1="0" x2="655.5" y1="735.2178" y2="735.2178"/><rect fill="#EEEEEE" height="23.3105" style="stroke:#000000;stroke-width:2.0;" width="142" x="256.75" y="721.5625"/><text fill="#000000" font-family="sans-serif" font-size="13" font-weight="bold" lengthAdjust="spacing" textLength="124" x="262.75" y="738.1309">EDC Configuration</text><polygon fill="#181818" points="223.5,772.1836,233.5,776.1836,223.5,780.1836,227.5,776.1836" style="stroke:#181818;stroke-width:1.0;"/><line style="stroke:#181818;stroke-width:1.0;" x1="23.5" x2="229.5" y1="776.1836" y2="776.1836"/><text fill="#000000" font-family="sans-serif" font-size="13" lengthAdjust="spacing" textLength="180" x="30.5" y="771.4414">Provide EDC Name &amp; Version</text><polygon fill="#181818" points="439.5,801.4941,449.5,805.4941,439.5,809.4941,443.5,805.4941" style="stroke:#181818;stroke-width:1.0;"/><line style="stroke:#181818;stroke-width:1.0;" x1="235.5" x2="445.5" y1="805.4941" y2="805.4941"/><text fill="#000000" font-family="sans-serif" font-size="13" lengthAdjust="spacing" textLength="165" x="242.5" y="800.752">Submit EDC Configuration</text><rect fill="#EEEEEE" height="3" style="stroke:#EEEEEE;stroke-width:1.0;" width="655.5" x="0" y="834.1494"/><line style="stroke:#000000;stroke-width:1.0;" x1="0" x2="655.5" y1="834.1494" y2="834.1494"/><line style="stroke:#000000;stroke-width:1.0;" x1="0" x2="655.5" y1="837.1494" y2="837.1494"/><rect fill="#EEEEEE" height="23.3105" style="stroke:#000000;stroke-width:2.0;" width="168" x="243.75" y="823.4941"/><text fill="#000000" font-family="sans-serif" font-size="13" font-weight="bold" lengthAdjust="spacing" textLength="150" x="249.75" y="840.0625">Preview Configuration</text><polygon fill="#181818" points="439.5,874.1152,449.5,878.1152,439.5,882.1152,443.5,878.1152" style="stroke:#181818;stroke-width:1.0;"/><line style="stroke:#181818;stroke-width:1.0;" x1="235.5" x2="445.5" y1="878.1152" y2="878.1152"/><text fill="#000000" font-family="sans-serif" font-size="13" lengthAdjust="spacing" textLength="192" x="242.5" y="873.373">Request Configuration Preview</text><polygon fill="#181818" points="246.5,903.4258,236.5,907.4258,246.5,911.4258,242.5,907.4258" style="stroke:#181818;stroke-width:1.0;"/><line style="stroke:#181818;stroke-width:1.0;stroke-dasharray:2.0,2.0;" x1="240.5" x2="450.5" y1="907.4258" y2="907.4258"/><text fill="#000000" font-family="sans-serif" font-size="13" lengthAdjust="spacing" textLength="149" x="252.5" y="902.6836">Configuration Summary</text><polygon fill="#181818" points="34.5,932.7363,24.5,936.7363,34.5,940.7363,30.5,936.7363" style="stroke:#181818;stroke-width:1.0;"/><line style="stroke:#181818;stroke-width:1.0;stroke-dasharray:2.0,2.0;" x1="28.5" x2="234.5" y1="936.7363" y2="936.7363"/><text fill="#000000" font-family="sans-serif" font-size="13" lengthAdjust="spacing" textLength="98" x="40.5" y="931.9941">Display Preview</text><rect fill="#EEEEEE" height="3" style="stroke:#EEEEEE;stroke-width:1.0;" width="655.5" x="0" y="965.3916"/><line style="stroke:#000000;stroke-width:1.0;" x1="0" x2="655.5" y1="965.3916" y2="965.3916"/><line style="stroke:#000000;stroke-width:1.0;" x1="0" x2="655.5" y1="968.3916" y2="968.3916"/><rect fill="#EEEEEE" height="23.3105" style="stroke:#000000;stroke-width:2.0;" width="100" x="277.75" y="954.7363"/><text fill="#000000" font-family="sans-serif" font-size="13" font-weight="bold" lengthAdjust="spacing" textLength="82" x="283.75" y="971.3047">Deployment</text><polygon fill="#181818" points="223.5,1005.3574,233.5,1009.3574,223.5,1013.3574,227.5,1009.3574" style="stroke:#181818;stroke-width:1.0;"/><line style="stroke:#181818;stroke-width:1.0;" x1="23.5" x2="229.5" y1="1009.3574" y2="1009.3574"/><text fill="#000000" font-family="sans-serif" font-size="13" lengthAdjust="spacing" textLength="80" x="30.5" y="1004.6152">Click Deploy</text><polygon fill="#181818" points="439.5,1034.668,449.5,1038.668,439.5,1042.668,443.5,1038.668" style="stroke:#181818;stroke-width:1.0;"/><line style="stroke:#181818;stroke-width:1.0;" x1="235.5" x2="445.5" y1="1038.668" y2="1038.668"/><text fill="#000000" font-family="sans-serif" font-size="13" lengthAdjust="spacing" textLength="125" x="242.5" y="1033.9258">Trigger Deployment</text><polygon fill="#181818" points="582.5,1079.2891,592.5,1083.2891,582.5,1087.2891,586.5,1083.2891" style="stroke:#181818;stroke-width:1.0;"/><line style="stroke:#181818;stroke-width:1.0;" x1="451.5" x2="588.5" y1="1083.2891" y2="1083.2891"/><text fill="#000000" font-family="sans-serif" font-size="13" lengthAdjust="spacing" textLength="112" x="458.5" y="1063.2363">Deploy EDC, DTR,</text><text fill="#000000" font-family="sans-serif" font-size="13" lengthAdjust="spacing" textLength="104" x="458.5" y="1078.5469">Submodel Server</text><polygon fill="#181818" points="462.5,1108.5996,452.5,1112.5996,462.5,1116.5996,458.5,1112.5996" style="stroke:#181818;stroke-width:1.0;"/><line style="stroke:#181818;stroke-width:1.0;stroke-dasharray:2.0,2.0;" x1="456.5" x2="593.5" y1="1112.5996" y2="1112.5996"/><text fill="#000000" font-family="sans-serif" font-size="13" lengthAdjust="spacing" textLength="119" x="468.5" y="1107.8574">Deployment Status</text><polygon fill="#181818" points="246.5,1137.9102,236.5,1141.9102,246.5,1145.9102,242.5,1141.9102" style="stroke:#181818;stroke-width:1.0;"/><line style="stroke:#181818;stroke-width:1.0;stroke-dasharray:2.0,2.0;" x1="240.5" x2="450.5" y1="1141.9102" y2="1141.9102"/><text fill="#000000" font-family="sans-serif" font-size="13" lengthAdjust="spacing" textLength="119" x="252.5" y="1137.168">Deployment Result</text><polygon fill="#181818" points="34.5,1167.2207,24.5,1171.2207,34.5,1175.2207,30.5,1171.2207" style="stroke:#181818;stroke-width:1.0;"/><line style="stroke:#181818;stroke-width:1.0;stroke-dasharray:2.0,2.0;" x1="28.5" x2="234.5" y1="1171.2207" y2="1171.2207"/><text fill="#000000" font-family="sans-serif" font-size="13" lengthAdjust="spacing" textLength="156" x="40.5" y="1166.4785">Show Deployment Status</text><!--SRC=[rLHDRzim3BthLn0zx0Dei7k156W-YksmjeZTxTABAhEEK5loA3gPz-j7ANNhs4NNwsuo-VZu-4HP6_O4jm59DPhO6jjent2o_hw4I_AEqHKde0DShgU0XJQFVNunokUQIcHOLcrWf0HvEYirdyDrWmvMs5I-gr7mF-qVJGNCvofgWTcvD8GpAR7cSOfB55bxN_i2AyYGTbApzEx1bYrfjjvDc3AiqF2uwCvzMl-sWQqhuGjSuVxpSTKD-PqjSDBhgm_yAlz5orlHQSr1HTurg9nd1BBbbi4_H2CZA6KMg0afz-AYkexH2sCmX1IufUeG4m-4yLin_ChG4F8XaXalL8DaF2cv5uYDrSUeJrGkaagPm_BRrYLpLxQqh2l8zzR11alnYBhtMRpAD- -rLQ3_kvLnXAbzwzNo7sRr5aJabQuHFi0Ff109faqcTAd93U7EudxQQ42mmLyj1XvXdYgLG6RFJ-q8aRLrhQbBL898qizaAq9JwUwvFctAo-Dyw_KEHULoWwNWNagJalF-3n4xfLGS_3HQV7hdHZkhUkoiPnq8oLXp6ux66sGt6DgAHwDbMxz_XU8l]--></g></svg>