<?xml version="1.0" encoding="us-ascii" standalone="no"?><svg xmlns="http://www.w3.org/2000/svg" xmlns:xlink="http://www.w3.org/1999/xlink" contentStyleType="text/css" height="605px" preserveAspectRatio="none" style="width:691px;height:605px;background:#FFFFFF;" version="1.1" viewBox="0 0 691 605" width="691px" zoomAndPan="magnify"><defs/><g><line style="stroke:#181818;stroke-width:0.5;stroke-dasharray:5.0,5.0;" x1="23" x2="23" y1="81.4883" y2="524.5254"/><line style="stroke:#181818;stroke-width:0.5;stroke-dasharray:5.0,5.0;" x1="217" x2="217" y1="81.4883" y2="524.5254"/><line style="stroke:#181818;stroke-width:0.5;stroke-dasharray:5.0,5.0;" x1="449" x2="449" y1="81.4883" y2="524.5254"/><line style="stroke:#181818;stroke-width:0.5;stroke-dasharray:5.0,5.0;" x1="623.5" x2="623.5" y1="81.4883" y2="524.5254"/><text fill="#000000" font-family="sans-serif" font-size="14" lengthAdjust="spacing" textLength="31" x="5" y="78.5352">User</text><ellipse cx="23.5" cy="13.5" fill="#E2E2F0" rx="8" ry="8" style="stroke:#181818;stroke-width:0.5;"/><path d="M23.5,21.5 L23.5,48.5 M10.5,29.5 L36.5,29.5 M23.5,48.5 L10.5,63.5 M23.5,48.5 L36.5,63.5 " fill="none" style="stroke:#181818;stroke-width:0.5;"/><text fill="#000000" font-family="sans-serif" font-size="14" lengthAdjust="spacing" textLength="31" x="5" y="537.0605">User</text><ellipse cx="23.5" cy="548.5137" fill="#E2E2F0" rx="8" ry="8" style="stroke:#181818;stroke-width:0.5;"/><path d="M23.5,556.5137 L23.5,583.5137 M10.5,564.5137 L36.5,564.5137 M23.5,583.5137 L10.5,598.5137 M23.5,583.5137 L36.5,598.5137 " fill="none" style="stroke:#181818;stroke-width:0.5;"/><rect fill="#E2E2F0" height="30.4883" rx="2.5" ry="2.5" style="stroke:#181818;stroke-width:0.5;" width="111" x="162" y="50"/><text fill="#000000" font-family="sans-serif" font-size="14" lengthAdjust="spacing" textLength="97" x="169" y="70.5352">EMC Frontend</text><rect fill="#E2E2F0" height="30.4883" rx="2.5" ry="2.5" style="stroke:#181818;stroke-width:0.5;" width="111" x="162" y="523.5254"/><text fill="#000000" font-family="sans-serif" font-size="14" lengthAdjust="spacing" textLength="97" x="169" y="544.0605">EMC Frontend</text><rect fill="#E2E2F0" height="30.4883" rx="2.5" ry="2.5" style="stroke:#181818;stroke-width:0.5;" width="105" x="397" y="50"/><text fill="#000000" font-family="sans-serif" font-size="14" lengthAdjust="spacing" textLength="91" x="404" y="70.5352">EMC Backend</text><rect fill="#E2E2F0" height="30.4883" rx="2.5" ry="2.5" style="stroke:#181818;stroke-width:0.5;" width="105" x="397" y="523.5254"/><text fill="#000000" font-family="sans-serif" font-size="14" lengthAdjust="spacing" textLength="91" x="404" y="544.0605">EMC Backend</text><rect fill="#E2E2F0" height="30.4883" rx="2.5" ry="2.5" style="stroke:#181818;stroke-width:0.5;" width="112" x="567.5" y="50"/><text fill="#000000" font-family="sans-serif" font-size="14" lengthAdjust="spacing" textLength="98" x="574.5" y="70.5352">Target Cluster</text><rect fill="#E2E2F0" height="30.4883" rx="2.5" ry="2.5" style="stroke:#181818;stroke-width:0.5;" width="112" x="567.5" y="523.5254"/><text fill="#000000" font-family="sans-serif" font-size="14" lengthAdjust="spacing" textLength="98" x="574.5" y="544.0605">Target Cluster</text><rect fill="#EEEEEE" height="3" style="stroke:#EEEEEE;stroke-width:1.0;" width="684.5" x="0" y="112.1436"/><line style="stroke:#000000;stroke-width:1.0;" x1="0" x2="684.5" y1="112.1436" y2="112.1436"/><line style="stroke:#000000;stroke-width:1.0;" x1="0" x2="684.5" y1="115.1436" y2="115.1436"/><rect fill="#EEEEEE" height="23.3105" style="stroke:#000000;stroke-width:2.0;" width="112" x="286.25" y="101.4883"/><text fill="#000000" font-family="sans-serif" font-size="13" font-weight="bold" lengthAdjust="spacing" textLength="94" x="292.25" y="118.0566">Initiate Delete</text><polygon fill="#181818" points="205.5,167.4199,215.5,171.4199,205.5,175.4199,209.5,171.4199" style="stroke:#181818;stroke-width:1.0;"/><line style="stroke:#181818;stroke-width:1.0;" x1="23.5" x2="211.5" y1="171.4199" y2="171.4199"/><text fill="#000000" font-family="sans-serif" font-size="13" lengthAdjust="spacing" textLength="107" x="30.5" y="151.3672">Click Delete Icon</text><text fill="#000000" font-family="sans-serif" font-size="13" lengthAdjust="spacing" textLength="115" x="30.5" y="166.6777">(on deployed EDC)</text><polygon fill="#181818" points="34.5,196.7305,24.5,200.7305,34.5,204.7305,30.5,200.7305" style="stroke:#181818;stroke-width:1.0;"/><line style="stroke:#181818;stroke-width:1.0;" x1="28.5" x2="216.5" y1="200.7305" y2="200.7305"/><text fill="#000000" font-family="sans-serif" font-size="13" lengthAdjust="spacing" textLength="164" x="40.5" y="195.9883">Show Delete Confirmation</text><rect fill="#EEEEEE" height="3" style="stroke:#EEEEEE;stroke-width:1.0;" width="684.5" x="0" y="229.3857"/><line style="stroke:#000000;stroke-width:1.0;" x1="0" x2="684.5" y1="229.3857" y2="229.3857"/><line style="stroke:#000000;stroke-width:1.0;" x1="0" x2="684.5" y1="232.3857" y2="232.3857"/><rect fill="#EEEEEE" height="23.3105" style="stroke:#000000;stroke-width:2.0;" width="119" x="282.75" y="218.7305"/><text fill="#000000" font-family="sans-serif" font-size="13" font-weight="bold" lengthAdjust="spacing" textLength="101" x="288.75" y="235.2988">Confirm Delete</text><polygon fill="#181818" points="205.5,269.3516,215.5,273.3516,205.5,277.3516,209.5,273.3516" style="stroke:#181818;stroke-width:1.0;"/><line style="stroke:#181818;stroke-width:1.0;" x1="23.5" x2="211.5" y1="273.3516" y2="273.3516"/><text fill="#000000" font-family="sans-serif" font-size="13" lengthAdjust="spacing" textLength="95" x="30.5" y="268.6094">Confirm Delete</text><polygon fill="#181818" points="437.5,298.6621,447.5,302.6621,437.5,306.6621,441.5,302.6621" style="stroke:#181818;stroke-width:1.0;"/><line style="stroke:#181818;stroke-width:1.0;" x1="217.5" x2="443.5" y1="302.6621" y2="302.6621"/><text fill="#000000" font-family="sans-serif" font-size="13" lengthAdjust="spacing" textLength="208" x="224.5" y="297.9199">Send Delete Deployment Request</text><rect fill="#EEEEEE" height="3" style="stroke:#EEEEEE;stroke-width:1.0;" width="684.5" x="0" y="331.3174"/><line style="stroke:#000000;stroke-width:1.0;" x1="0" x2="684.5" y1="331.3174" y2="331.3174"/><line style="stroke:#000000;stroke-width:1.0;" x1="0" x2="684.5" y1="334.3174" y2="334.3174"/><rect fill="#EEEEEE" height="23.3105" style="stroke:#000000;stroke-width:2.0;" width="129" x="277.75" y="320.6621"/><text fill="#000000" font-family="sans-serif" font-size="13" font-weight="bold" lengthAdjust="spacing" textLength="111" x="283.75" y="337.2305">Process Deletion</text><polygon fill="#181818" points="611.5,371.2832,621.5,375.2832,611.5,379.2832,615.5,375.2832" style="stroke:#181818;stroke-width:1.0;"/><line style="stroke:#181818;stroke-width:1.0;" x1="449.5" x2="617.5" y1="375.2832" y2="375.2832"/><text fill="#000000" font-family="sans-serif" font-size="13" lengthAdjust="spacing" textLength="150" x="456.5" y="370.541">Delete EDC Deployment</text><polygon fill="#181818" points="460.5,400.5938,450.5,404.5938,460.5,408.5938,456.5,404.5938" style="stroke:#181818;stroke-width:1.0;"/><line style="stroke:#181818;stroke-width:1.0;stroke-dasharray:2.0,2.0;" x1="454.5" x2="622.5" y1="404.5938" y2="404.5938"/><text fill="#000000" font-family="sans-serif" font-size="13" lengthAdjust="spacing" textLength="96" x="466.5" y="399.8516">Deletion Status</text><rect fill="#EEEEEE" height="3" style="stroke:#EEEEEE;stroke-width:1.0;" width="684.5" x="0" y="433.249"/><line style="stroke:#000000;stroke-width:1.0;" x1="0" x2="684.5" y1="433.249" y2="433.249"/><line style="stroke:#000000;stroke-width:1.0;" x1="0" x2="684.5" y1="436.249" y2="436.249"/><rect fill="#EEEEEE" height="23.3105" style="stroke:#000000;stroke-width:2.0;" width="103" x="290.75" y="422.5938"/><text fill="#000000" font-family="sans-serif" font-size="13" font-weight="bold" lengthAdjust="spacing" textLength="85" x="296.75" y="439.1621">Update View</text><polygon fill="#181818" points="228.5,473.2148,218.5,477.2148,228.5,481.2148,224.5,477.2148" style="stroke:#181818;stroke-width:1.0;"/><line style="stroke:#181818;stroke-width:1.0;stroke-dasharray:2.0,2.0;" x1="222.5" x2="448.5" y1="477.2148" y2="477.2148"/><text fill="#000000" font-family="sans-serif" font-size="13" lengthAdjust="spacing" textLength="96" x="234.5" y="472.4727">Deletion Result</text><polygon fill="#181818" points="34.5,502.5254,24.5,506.5254,34.5,510.5254,30.5,506.5254" style="stroke:#181818;stroke-width:1.0;"/><line style="stroke:#181818;stroke-width:1.0;stroke-dasharray:2.0,2.0;" x1="28.5" x2="216.5" y1="506.5254" y2="506.5254"/><text fill="#000000" font-family="sans-serif" font-size="13" lengthAdjust="spacing" textLength="170" x="40.5" y="501.7832">Update Deployed EDC View</text><!--SRC=[TP3DJiCm48JlVefLJt3e2rGAX_nKwW49DPGJbvMpWDNK3lP65M_FPh5B0N6AbPdzPdRHSeXmI1JDX96TTHDwXbLtty0s1i_aXnLWWcttrr2ZFHQz_gK_OdmbXcQS4rDKItuRKrMmyuuTCa5B8ycdginI0jPtaWGRyJfxBEBE1l_iRuA7WQOnVD00NTlS6d6AN-SsqB-5SnbeWdznyOJiWjUu_EFVj1zovjQBqij-PQhLy1F9UdjwdocniXzYi9JIbqi25tgjXBomO391MbzHJD7N9Us2w1bvJee_JCDofoT7vq8kjI_sFQLvPEtzVP0ys5wTJ2dc4m00]--></g></svg>